<svg xmlns="http://www.w3.org/2000/svg" viewBox="0 0 400 300" fill="none">
  <!-- Background with gradient -->
  <defs>
    <linearGradient id="bg-gradient" x1="0" y1="0" x2="400" y2="300">
      <stop offset="0%" style="stop-color:#27ae60;stop-opacity:0.1"/>
      <stop offset="100%" style="stop-color:#2ecc71;stop-opacity:0.1"/>
    </linearGradient>
  </defs>
  <rect width="400" height="300" fill="url(#bg-gradient)"/>
  
  <!-- Large Ancient Tree -->
  <path d="M180 250 Q200 240 220 250 L215 150 Q200 140 185 150 Z" fill="#795548"/>  <!-- Trunk -->
  <path d="M150 150 Q200 50 250 150 Q200 120 150 150" fill="#27ae60"/>  <!-- Canopy -->
  <path d="M160 120 Q200 40 240 120 Q200 100 160 120" fill="#2ecc71"/>  <!-- Upper Canopy -->
  
  <!-- Background Trees -->
  <path d="M50 250 L70 250 L60 180 Z" fill="#795548"/>  <!-- Trunk -->
  <path d="M30 180 Q60 120 90 180 Q60 160 30 180" fill="#27ae60"/>  <!-- Canopy -->
  
  <path d="M330 250 L350 250 L340 200 Z" fill="#795548"/>  <!-- Trunk -->
  <path d="M310 200 Q340 150 370 200 Q340 180 310 200" fill="#27ae60"/>  <!-- Canopy -->
  
  <!-- Forest Floor Details -->
  <path d="M0 250 Q100 240 200 250 Q300 240 400 250" fill="#8b6b61"/>  <!-- Ground -->
  <circle cx="100" cy="240" r="3" fill="#795548"/>  <!-- Rocks/Details -->
  <circle cx="300" cy="245" r="2" fill="#795548"/>
  
  <!-- Sunlight Rays -->
  <path d="M150 50 L170 80 M200 30 L200 60 M250 50 L230 80" stroke="#f1c40f" stroke-width="1" stroke-opacity="0.5"/>
  
  <!-- Small Plants -->
  <path d="M120 240 Q130 220 140 240" stroke="#2ecc71" stroke-width="2" fill="none"/>
  <path d="M260 240 Q270 220 280 240" stroke="#2ecc71" stroke-width="2" fill="none"/>
</svg>