<svg xmlns="http://www.w3.org/2000/svg" viewBox="0 0 400 300" fill="none">
  <!-- Background with gradient -->
  <defs>
    <linearGradient id="bg-gradient" x1="0" y1="0" x2="400" y2="300">
      <stop offset="0%" style="stop-color:#bdc3c7;stop-opacity:0.1"/>
      <stop offset="100%" style="stop-color:#2c3e50;stop-opacity:0.1"/>
    </linearGradient>
  </defs>
  <rect width="400" height="300" fill="url(#bg-gradient)"/>
  
  <!-- Main Mountain Range -->
  <path d="M0 250 L100 100 L200 250 L300 80 L400 250" fill="#34495e"/>
  
  <!-- Snow Caps -->
  <path d="M90 110 L100 100 L110 110 L100 115 Z" fill="#ecf0f1"/>
  <path d="M290 90 L300 80 L310 90 L300 95 Z" fill="#ecf0f1"/>
  
  <!-- Middle Range Mountains -->
  <path d="M50 250 L150 150 L250 250" fill="#2c3e50"/>
  <path d="M200 250 L300 180 L400 250" fill="#2c3e50"/>
  
  <!-- Foreground Details -->
  <path d="M0 250 L80 200 L160 250" fill="#1a2530"/>
  <path d="M220 250 L280 220 L340 250" fill="#1a2530"/>
  
  <!-- Sun/Moon -->
  <circle cx="350" cy="50" r="20" fill="#f1c40f" fill-opacity="0.8"/>
  
  <!-- Clouds -->
  <path d="M50 80 Q70 60 90 80 Q110 100 130 80" fill="#ecf0f1" fill-opacity="0.6"/>
  <path d="M250 100 Q270 80 290 100 Q310 120 330 100" fill="#ecf0f1" fill-opacity="0.6"/>
</svg>