<svg xmlns="http://www.w3.org/2000/svg" viewBox="0 0 400 300" fill="none">
  <!-- Background with gradient -->
  <defs>
    <linearGradient id="bg-gradient" x1="0" y1="0" x2="400" y2="300">
      <stop offset="0%" style="stop-color:#2ecc71;stop-opacity:0.1"/>
      <stop offset="100%" style="stop-color:#3498db;stop-opacity:0.1"/>
    </linearGradient>
  </defs>
  <rect width="400" height="300" fill="url(#bg-gradient)"/>
  
  <!-- Earth -->
  <circle cx="200" cy="150" r="60" fill="#3498db"/>
  
  <!-- Continents -->
  <path d="M160 120 Q180 100 200 120 Q220 140 240 120" fill="#27ae60"/>
  <path d="M170 150 Q190 170 210 150 Q230 130 250 150" fill="#27ae60"/>
  <path d="M180 180 Q200 160 220 180" fill="#27ae60"/>
  
  <!-- Recycling Arrows -->
  <path d="M200 70 L220 90 L180 90 Z" fill="#2ecc71" transform="rotate(120 200 150)"/>
  <path d="M200 70 L220 90 L180 90 Z" fill="#2ecc71" transform="rotate(240 200 150)"/>
  <path d="M200 70 L220 90 L180 90 Z" fill="#2ecc71"/>
  
  <!-- Solar Panel -->
  <rect x="280" y="100" width="40" height="30" fill="#34495e"/>
  <line x1="285" y1="110" x2="315" y2="110" stroke="#95a5a6" stroke-width="2"/>
  <line x1="285" y1="120" x2="315" y2="120" stroke="#95a5a6" stroke-width="2"/>
  
  <!-- Wind Turbine -->
  <rect x="80" y="130" width="5" height="50" fill="#34495e"/>
  <circle cx="82.5" cy="130" r="20" fill="none" stroke="#34495e" stroke-width="2">
    <animateTransform
      attributeName="transform"
      type="rotate"
      from="0 82.5 130"
      to="360 82.5 130"
      dur="4s"
      repeatCount="indefinite"/>
  </circle>
</svg>