<svg xmlns="http://www.w3.org/2000/svg" viewBox="0 0 400 300" fill="none">
  <!-- Background with gradient -->
  <defs>
    <linearGradient id="bg-gradient" x1="0" y1="0" x2="400" y2="300">
      <stop offset="0%" style="stop-color:#9b59b6;stop-opacity:0.1"/>
      <stop offset="100%" style="stop-color:#e74c3c;stop-opacity:0.1"/>
    </linearGradient>
  </defs>
  <rect width="400" height="300" fill="url(#bg-gradient)"/>
  
  <!-- Mountain -->
  <path d="M50 250 L200 100 L350 250" fill="#34495e"/>
  
  <!-- Ancient Temple -->
  <path d="M150 180 h100 l-50 -40 Z" fill="#e67e22"/>
  <rect x="160" y="180" width="80" height="40" fill="#d35400"/>
  <rect x="170" y="190" width="20" height="30" fill="#e67e22"/>
  <rect x="210" y="190" width="20" height="30" fill="#e67e22"/>
  
  <!-- Palm Tree -->
  <rect x="300" y="150" width="10" height="70" fill="#27ae60"/>
  <path d="M280 150 Q305 130 330 150" fill="#2ecc71"/>
  <path d="M285 140 Q305 120 325 140" fill="#2ecc71"/>
  
  <!-- Water Feature -->
  <path d="M50 230 Q200 210 350 230" fill="#3498db" fill-opacity="0.3"/>
  
  <!-- Stars/Special Places -->
  <circle cx="100" cy="80" r="3" fill="#f1c40f"/>
  <circle cx="300" cy="100" r="3" fill="#f1c40f"/>
  <circle cx="200" cy="60" r="3" fill="#f1c40f"/>
  
  <!-- Location Marker -->
  <path d="M200 160 l-10 20 h20 Z" fill="#e74c3c"/>
  <circle cx="200" cy="150" r="8" fill="#c0392b"/>
</svg>