<svg xmlns="http://www.w3.org/2000/svg" viewBox="0 0 400 300" fill="none">
  <!-- Background with gradient -->
  <defs>
    <linearGradient id="bg-gradient" x1="0" y1="0" x2="400" y2="300">
      <stop offset="0%" style="stop-color:#e67e22;stop-opacity:0.1"/>
      <stop offset="100%" style="stop-color:#d35400;stop-opacity:0.1"/>
    </linearGradient>
  </defs>
  <rect width="400" height="300" fill="url(#bg-gradient)"/>
  
  <!-- Sun -->
  <circle cx="200" cy="50" r="30" fill="#f1c40f" fill-opacity="0.8"/>
  <circle cx="200" cy="50" r="40" fill="#f1c40f" fill-opacity="0.2"/>
  
  <!-- Heat Waves -->
  <path d="M160 40 Q180 30 200 40 Q220 50 240 40" stroke="#f1c40f" stroke-width="1" stroke-opacity="0.5"/>
  <path d="M140 60 Q180 50 220 60 Q260 70 300 60" stroke="#f1c40f" stroke-width="1" stroke-opacity="0.5"/>
  
  <!-- Sand Dunes -->
  <path d="M0 200 Q100 150 200 200 Q300 150 400 200 L400 300 L0 300 Z" fill="#e67e22"/>
  <path d="M0 220 Q100 170 200 220 Q300 170 400 220 L400 300 L0 300 Z" fill="#d35400"/>
  <path d="M0 240 Q100 190 200 240 Q300 190 400 240 L400 300 L0 300 Z" fill="#e67e22"/>
  
  <!-- Cactus -->
  <path d="M100 180 L100 220 M90 200 L110 200" stroke="#27ae60" stroke-width="4"/>
  <path d="M300 160 L300 220 M290 180 L310 180" stroke="#27ae60" stroke-width="4"/>
  
  <!-- Desert Rocks -->
  <path d="M150 250 L170 230 L190 250" fill="#95a5a6"/>
  <path d="M250 240 L270 220 L290 240" fill="#95a5a6"/>
  
  <!-- Wind-blown Sand -->
  <path d="M50 230 Q70 220 90 230" stroke="#e67e22" stroke-width="1" stroke-dasharray="2,2"/>
  <path d="M250 220 Q270 210 290 220" stroke="#e67e22" stroke-width="1" stroke-dasharray="2,2"/>
</svg>